HIERARCHY
ROOT joint_Root
{
  OFFSET 0 0 0
  CHANNELS 6 Xposition Yposition Zposition Zrotation Xrotation Yrotation
  JOINT Hips
  {
    OFFSET 0.847027 93.984 -452.225
    CHANNELS 6 Xposition Yposition Zposition Zrotation Xrotation Yrotation
    JOINT Spine
    {
      OFFSET 15.7357 0 0
      CHANNELS 6 Xposition Yposition Zposition Zrotation Xrotation Yrotation
      JOINT Chest
      {
        OFFSET 8.98455 -0.406207 0
        CHANNELS 6 Xposition Yposition Zposition Zrotation Xrotation Yrotation
        JOINT Neck
        {
          OFFSET 16.3773 0 0
          CHANNELS 6 Xposition Yposition Zposition Zrotation Xrotation Yrotation
          JOINT Head
          {
            OFFSET 6.45672 0 0
            CHANNELS 6 Xposition Yposition Zposition Zrotation Xrotation Yrotation
            End Site
            {
              OFFSET 0 0 0
            }
          }
        }
        JOINT Shoulder_L
        {
          OFFSET 12.9942 -0.242716 4.98039
          CHANNELS 6 Xposition Yposition Zposition Zrotation Xrotation Yrotation
          JOINT UpperArm_L
          {
            OFFSET 5.34809 0 0
            CHANNELS 6 Xposition Yposition Zposition Zrotation Xrotation Yrotation
            JOINT LowerArm_L
            {
              OFFSET 24.3286 1.87007e-05 0
              CHANNELS 6 Xposition Yposition Zposition Zrotation Xrotation Yrotation
              JOINT Hand_L
              {
                OFFSET 22.2916 0 0
                CHANNELS 6 Xposition Yposition Zposition Zrotation Xrotation Yrotation
                End Site
                {
                  OFFSET 0 0 0
                }
              }
            }
          }
        }
        JOINT Shoulder_R
        {
          OFFSET 12.9945 -0.242716 -4.98039
          CHANNELS 6 Xposition Yposition Zposition Zrotation Xrotation Yrotation
          JOINT UpperArm_R
          {
            OFFSET -5.34813 0 0
            CHANNELS 6 Xposition Yposition Zposition Zrotation Xrotation Yrotation
            JOINT LowerArm_R
            {
              OFFSET -24.3289 0.000322201 0
              CHANNELS 6 Xposition Yposition Zposition Zrotation Xrotation Yrotation
              JOINT Hand_R
              {
                OFFSET -22.2915 -0.000108084 0
                CHANNELS 6 Xposition Yposition Zposition Zrotation Xrotation Yrotation
                End Site
                {
                  OFFSET 0 0 0
                }
              }
            }
          }
        }
      }
    }
    JOINT UpperLeg_L
    {
      OFFSET -2.19248 -6.46944 0
      CHANNELS 6 Xposition Yposition Zposition Zrotation Xrotation Yrotation
      JOINT LowerLeg_L
      {
        OFFSET 39.0811 0 -1.23785e-05
        CHANNELS 6 Xposition Yposition Zposition Zrotation Xrotation Yrotation
        JOINT Foot_L
        {
          OFFSET 40.9854 0 -1.26872e-05
          CHANNELS 6 Xposition Yposition Zposition Zrotation Xrotation Yrotation
          JOINT Toes_L
          {
            OFFSET 11.7543 0 0
            CHANNELS 6 Xposition Yposition Zposition Zrotation Xrotation Yrotation
            End Site
            {
              OFFSET 0 0 0
            }
          }
        }
      }
    }
    JOINT UpperLeg_R
    {
      OFFSET -2.19251 6.46944 0
      CHANNELS 6 Xposition Yposition Zposition Zrotation Xrotation Yrotation
      JOINT LowerLeg_R
      {
        OFFSET -39.0811 -0.00228153 -0.0401928
        CHANNELS 6 Xposition Yposition Zposition Zrotation Xrotation Yrotation
        JOINT Foot_R
        {
          OFFSET -40.9854 0 0
          CHANNELS 6 Xposition Yposition Zposition Zrotation Xrotation Yrotation
          JOINT Toes_R
          {
            OFFSET -11.7543 0 0
            CHANNELS 6 Xposition Yposition Zposition Zrotation Xrotation Yrotation
            End Site
            {
              OFFSET 0 0 0
            }
          }
        }
      }
    }
  }
}
MOTION
Frames:	9
Frame Time:	0.0333333
0 0 0 0 0 -0 -130.536 80.5322 -344.932 86.6596 -14.5302 -6.25317 15.7357 5.1072e-06 -5.51764e-07 109.392 80.2151 -104.606 8.98455 -0.406207 -4.3199e-07 10.4851 6.56625 8.9705 16.3773 -1.3905e-06 -6.99897e-07 -6.29095 3.66076 -0.828694 6.45672 -1.25837e-06 -1.02172e-07 -12.2385 3.68176 -7.37788 12.9942 -0.242716 4.98039 -91.6965 6.2615 -89.8082 5.34809 -7.22636e-06 -6.2814e-07 -67.1814 18.5922 12.7099 24.3286 1.87007e-05 4.90208e-06 -0.293328 -0.402557 -36.2375 22.2916 -9.88446e-07 4.63217e-06 7.49354 5.61055 -12.554 12.9945 -0.242716 -4.98039 89.5603 9.53607 -102.378 -5.34813 -1.25947e-06 -3.79883e-06 -49.9198 5.58403 -30.5217 -24.3289 0.000322201 -8.65921e-06 11.4549 -1.47236 -97.1932 -22.2915 -0.000108084 -4.47941e-06 16.0578 5.60607 -11.7011 -2.19248 -6.46944 -1.22533e-07 -177.245 -11.5445 -50.9822 39.0811 -6.73843e-06 -1.23785e-05 0.227187 0.137742 126.275 40.9854 -6.48686e-06 -1.26872e-05 -13.2614 7.58397 6.29754 11.7543 -2.30145e-07 3.05095e-06 0.0914401 -0.148163 -19.1937 -2.19251 6.46944 -1.45247e-06 -177.027 1.57233 157.772 -39.0811 -0.00228153 -0.0401928 -0.00952721 0.0605248 60.8574 -40.9854 7.72618e-06 5.99936e-06 5.82156 4.75422 -94.1636 -11.7543 -5.6619e-06 -5.58687e-06 0.347214 -0.414024 -20.5476 
0 0 0 0 0 -0 -130.092 84.7929 -335.435 88.8676 -16.9718 -8.49518 15.7357 5.1072e-06 -5.51764e-07 117.947 80.9209 -115.18 8.98455 -0.406207 -4.3199e-07 8.14154 8.48072 4.93041 16.3773 -1.3905e-06 -6.99897e-07 -6.42918 2.68476 0.882401 6.45672 -1.25837e-06 -1.02172e-07 -13.0536 1.35047 -6.25363 12.9942 -0.242716 4.98039 -91.6001 5.03749 -87.3418 5.34809 -7.22636e-06 -6.2814e-07 -65.699 25.964 26.4701 24.3286 1.87007e-05 4.90208e-06 16.951 18.0079 -44.5851 22.2916 -9.88446e-07 4.63217e-06 7.05512 5.65493 -15.4956 12.9945 -0.242716 -4.98039 89.9482 1.43168 -102.832 -5.34813 -1.25947e-06 -3.79883e-06 -57.0845 6.24102 -41.8874 -24.3289 0.000322201 -8.65921e-06 10.2997 -3.42348 -108.221 -22.2915 -0.000108084 -4.47941e-06 17.8191 5.55874 -9.15483 -2.19248 -6.46944 -1.22533e-07 177.495 -9.72758 -55.3636 39.0811 -6.73843e-06 -1.23785e-05 0.0519377 -0.00382179 112.925 40.9854 -6.48686e-06 -1.26872e-05 0.734011 5.88027 -17.7716 11.7543 -2.30145e-07 3.05095e-06 0.112719 -0.184938 -19.832 -2.19251 6.46944 -1.45247e-06 177.33 3.4077 168.022 -39.0811 -0.00228153 -0.0401928 0.00456144 0.0510468 44.8122 -40.9854 7.72618e-06 5.99936e-06 5.01509 10.5752 -83.8955 -11.7543 -5.6619e-06 -5.58687e-06 0.77399 -1.01714 -25.9784 
0 0 0 0 0 -0 -129.8 90.4745 -325.57 92.3913 -16.566 -11.9228 15.7357 5.1072e-06 -5.51765e-07 128.187 82.4809 -127.634 8.98455 -0.406207 -4.3199e-07 4.05312 9.26529 0.778494 16.3773 -1.3905e-06 -6.99897e-07 -5.91349 1.00522 1.03298 6.45672 -1.25837e-06 -1.02172e-07 -12.047 -1.94741 -5.03405 12.9942 -0.242716 4.98039 -90.2695 0.791044 -86.1637 5.34809 -7.22636e-06 -6.2814e-07 -68.6368 26.9765 37.8567 24.3286 1.87007e-05 4.90208e-06 12.8378 11.0751 -49.9114 22.2916 -9.88446e-07 4.63217e-06 3.79397 5.63253 -13.3598 12.9945 -0.242716 -4.98039 90.3039 -3.79156 -100.425 -5.34813 -1.25947e-06 -3.79883e-06 -58.6446 7.51175 -45.2166 -24.3289 0.000322201 -8.65921e-06 10.7222 -5.92613 -118.569 -22.2915 -0.000108084 -4.47941e-06 13.8633 5.48253 -5.74093 -2.19248 -6.46944 -1.22534e-07 173.652 -3.92094 -56.2293 39.0811 -6.73843e-06 -1.23785e-05 0.0278293 -0.0189709 95.0497 40.9854 -6.48686e-06 -1.26872e-05 5.29935 -2.36274 -33.7906 11.7543 -2.30145e-07 3.05095e-06 0.087962 -0.142246 -19.0905 -2.19251 6.46944 -1.45247e-06 172.223 6.51317 176.405 -39.0811 -0.00228153 -0.0401928 0.0284615 -0.00885615 25.1268 -40.9854 7.72618e-06 5.99936e-06 2.3413 13.0894 -57.4576 -11.7543 -5.6619e-06 -5.58687e-06 1.67494 -2.98387 -41.9094 
0 0 0 0 0 -0 -129.808 95.4502 -316.27 93.7481 -16.5954 -15.2044 15.7357 5.1072e-06 -5.51765e-07 141.355 83.3395 -142.363 8.98455 -0.406207 -4.3199e-07 0.664094 10.4631 -2.07932 16.3773 -1.3905e-06 -6.99897e-07 -5.57398 -0.23776 0.254533 6.45672 -1.25837e-06 -1.02172e-07 -9.19303 -5.38721 -3.69187 12.9942 -0.242716 4.98039 -88.3787 -4.69267 -85.9175 5.34809 -7.22636e-06 -6.2814e-07 -71.8923 23.2565 46.2628 24.3286 1.87007e-05 4.90208e-06 6.41829 4.19417 -57.0304 22.2916 -9.88446e-07 4.63217e-06 1.23204 5.58937 -10.7437 12.9945 -0.242716 -4.98039 90.5362 -5.60812 -99.5298 -5.34813 -1.25947e-06 -3.79883e-06 -57.2204 7.34022 -43.9073 -24.3289 0.000322201 -8.65921e-06 10.5684 -8.08406 -127.023 -22.2915 -0.000108084 -4.47941e-06 10.5625 5.41207 -3.33172 -2.19248 -6.46944 -1.22533e-07 174.315 0.35516 -54.3175 39.0811 -6.73843e-06 -1.23785e-05 0.0683526 -0.0416871 74.0713 40.9854 -6.48686e-06 -1.26872e-05 3.73588 5.6604 -34.2172 11.7543 -2.30145e-07 3.05095e-06 0.109743 -0.179747 -19.7421 -2.19251 6.46944 -1.45247e-06 167.96 19.7311 -178.117 -39.0811 -0.00228153 -0.0401928 0.0312089 -0.164555 8.6135 -40.9854 7.72618e-06 5.99936e-06 -11.5645 18.1309 -21.9769 -11.7543 -5.6619e-06 -5.58687e-06 1.50681 -2.484 -38.0382 
0 0 0 0 0 -0 -130.037 99.2226 -306.429 93.0367 -18.3428 -15.5379 15.7357 5.1072e-06 -5.51765e-07 147.224 82.6633 -149.112 8.98455 -0.406207 -4.3199e-07 0.408186 12.4551 -3.82768 16.3773 -1.3905e-06 -6.99897e-07 -5.80449 -0.389717 -1.7631 6.45672 -1.25837e-06 -1.02172e-07 -6.73659 -8.81259 -1.23621 12.9942 -0.242716 4.98039 -86.5344 -9.47751 -84.8104 5.34809 -7.22636e-06 -6.2814e-07 -75.0899 21.3201 51.3862 24.3286 1.87007e-05 4.90208e-06 1.75461 0.861807 -63.9724 22.2916 -9.88446e-07 4.63217e-06 4.05797 5.5824 -10.323 12.9945 -0.242716 -4.98039 90.5495 -5.50794 -99.2937 -5.34813 -1.25947e-06 -3.79883e-06 -53.0932 6.80011 -42.1032 -24.3289 0.000322201 -8.65921e-06 6.56655 -5.81471 -131.357 -22.2915 -0.000108084 -4.47941e-06 12.9067 5.41065 -3.28127 -2.19248 -6.46944 -1.22534e-07 176.122 0.523608 -47.5547 39.0811 -6.73843e-06 -1.23785e-05 0.0955943 -0.0887797 54.4664 40.9854 -6.48686e-06 -1.26872e-05 0.39815 10.5543 -33.7894 11.7543 -2.30145e-07 3.05095e-06 0.12023 -0.19815 -20.0604 -2.19251 6.46944 -1.45247e-06 165.284 20.7536 -174.262 -39.0811 -0.00228153 -0.0401928 0.0669887 -0.345931 9.89202 -40.9854 7.72618e-06 5.99936e-06 -7.13616 7.34438 -17.7637 -11.7543 -5.6619e-06 -5.58687e-06 0.39556 -0.476573 -21.1287 
0 0 0 0 0 -0 -130.569 101.525 -296.279 90.4188 -19.8294 -13.6991 15.7357 5.1072e-06 -5.51765e-07 146.384 81.7909 -148.001 8.98455 -0.406207 -4.3199e-07 1.56989 13.7531 -3.43372 16.3773 -1.3905e-06 -6.99897e-07 -4.86593 0.862955 -4.87238 6.45672 -1.25837e-06 -1.02172e-07 -6.03734 -10.9542 0.424794 12.9942 -0.242716 4.98039 -85.2628 -11.8368 -83.0043 5.34809 -7.22636e-06 -6.2814e-07 -76.6422 20.2553 54.2758 24.3286 1.87007e-05 4.90208e-06 -1.24145 -0.510926 -67.6286 22.2916 -9.88446e-07 4.63217e-06 4.69804 5.57806 -10.0917 12.9945 -0.242716 -4.98039 90.5307 -5.0563 -98.9999 -5.34813 -1.25947e-06 -3.79883e-06 -48.1109 7.64549 -40.9252 -24.3289 0.000322201 -8.65921e-06 4.11398 -3.52271 -130.504 -22.2915 -0.000108084 -4.47941e-06 14.7201 5.41449 -3.41439 -2.19248 -6.46944 -1.22534e-07 178.549 -1.61421 -38.4579 39.0811 -6.73843e-06 -1.23785e-05 0.0801285 -0.122775 38.1029 40.9854 -6.48686e-06 -1.26872e-05 -0.34035 4.51254 -34.7367 11.7543 -2.30145e-07 3.05095e-06 0.118353 -0.194853 -20.0033 -2.19251 6.46944 -1.45247e-06 163.757 18.4636 -170.075 -39.0811 -0.00228153 -0.0401928 0.156274 -0.438023 18.4257 -40.9854 7.72618e-06 5.99936e-06 -1.58199 8.28838 -17.597 -11.7543 -5.6619e-06 -5.58687e-06 0.333432 -0.396433 -20.3833 
0 0 0 0 0 -0 -131.439 102.425 -286.261 88.3335 -19.9752 -11.6664 15.7357 5.1072e-06 -5.51765e-07 143.606 81.6606 -144.92 8.98455 -0.406207 -4.3199e-07 2.34826 13.4782 -2.91271 16.3773 -1.3905e-06 -6.99897e-07 -3.10019 1.96348 -6.49064 6.45672 -1.25837e-06 -1.02172e-07 -6.21463 -11.8407 0.881341 12.9942 -0.242716 4.98039 -84.2427 -13.2193 -81.2081 5.34809 -7.22636e-06 -6.2814e-07 -75.9465 18.0931 54.3647 24.3286 1.87007e-05 4.90208e-06 2.70547 1.0785 -68.2814 22.2916 -9.88446e-07 4.63217e-06 1.64514 5.53725 -8.07767 12.9945 -0.242716 -4.98039 90.5035 -4.54168 -98.6667 -5.34813 -1.25947e-06 -3.79883e-06 -44.2583 9.81698 -39.6605 -24.3289 0.000322201 -8.65921e-06 4.42061 -3.26885 -126.436 -22.2915 -0.000108084 -4.47941e-06 14.2833 5.39018 -2.6206 -2.19248 -6.46944 -1.22533e-07 -178.911 -3.45917 -30.2436 39.0811 -6.73843e-06 -1.23785e-05 0.0387061 -0.0975 24.5665 40.9854 -6.48686e-06 -1.26872e-05 -1.44754 1.62798 -38.5232 11.7543 -2.30144e-07 3.05095e-06 0.121704 -0.200759 -20.1053 -2.19251 6.46944 -1.45247e-06 163.725 14.3586 -166.295 -39.0811 -0.00228153 -0.0401928 0.26945 -0.483811 27.6844 -40.9854 7.72618e-06 5.99936e-06 -1.32563 12.4762 -17.4122 -11.7543 -5.6619e-06 -5.58687e-06 0.342335 -0.407811 -20.4897 
0 0 0 0 0 -0 -132.487 102.124 -276.561 86.653 -18.3493 -10.7748 15.7357 5.1072e-06 -5.51765e-07 141.317 82.1788 -142.503 8.98455 -0.406207 -4.3199e-07 2.18751 12.2602 -2.61148 16.3773 -1.3905e-06 -6.99897e-07 -2.30903 1.90658 -6.73712 6.45672 -1.25837e-06 -1.02172e-07 -5.42655 -12.0909 1.51154 12.9942 -0.242716 4.98039 -84.0349 -13.3066 -80.5829 5.34809 -7.22636e-06 -6.2814e-07 -73.2391 16.6761 52.7348 24.3286 1.87007e-05 4.90208e-06 11.893 4.7485 -68.5442 22.2916 -9.88446e-07 4.63217e-06 -0.990555 5.4769 -5.61092 12.9945 -0.242716 -4.98039 90.536 -4.23291 -97.7753 -5.34813 -1.25947e-06 -3.79883e-06 -42.6291 13.4596 -37.4502 -24.3289 0.000322201 -8.65921e-06 6.54799 -3.89948 -120.787 -22.2915 -0.000108084 -4.47941e-06 14.306 5.36579 -1.8577 -2.19248 -6.46944 -1.22534e-07 -176.456 -3.84879 -25.8042 39.0811 -6.73843e-06 -1.23785e-05 0.0124988 -0.0398787 15.6242 40.9854 -6.48686e-06 -1.26872e-05 -0.724867 1.83906 -42.963 11.7543 -2.30145e-07 3.05095e-06 0.128167 -0.212251 -20.3034 -2.19251 6.46944 -1.45247e-06 164.919 12.4062 -163.942 -39.0811 -0.00228153 -0.0401928 0.42579 -0.543506 36.5846 -40.9854 7.72618e-06 5.99936e-06 -3.39238 13.5135 -15.5156 -11.7543 -5.6619e-06 -5.58687e-06 0.321691 -0.381519 -20.2438 
0 0 0 0 0 -0 -133.487 100.909 -267.189 85.2632 -16.6449 -11.2541 15.7357 5.1072e-06 -5.51764e-07 142.035 82.9384 -143.423 8.98455 -0.406207 -4.3199e-07 1.08638 11.211 -2.88755 16.3773 -1.3905e-06 -6.99897e-07 -2.18953 1.03844 -6.0026 6.45672 -1.25837e-06 -1.02172e-07 -4.16916 -11.9321 2.64589 12.9942 -0.242716 4.98039 -84.5937 -12.1295 -80.7532 5.34809 -7.22636e-06 -6.2814e-07 -68.9843 16.7583 49.8163 24.3286 1.87007e-05 4.90208e-06 19.1066 7.84647 -68.4935 22.2916 -9.88446e-07 4.63217e-06 -1.42453 5.43351 -4.06333 12.9945 -0.242716 -4.98039 90.5537 -3.94172 -96.9965 -5.34813 -1.25947e-06 -3.79883e-06 -43.9259 17.8573 -33.34 -24.3289 0.000322201 -8.65921e-06 7.74368 -3.60982 -114.867 -22.2915 -0.000108084 -4.47941e-06 15.172 5.34917 -1.35545 -2.19248 -6.46944 -1.22534e-07 -174.263 -3.57384 -24.7932 39.0811 -6.73843e-06 -1.23785e-05 0.000467496 0.0124674 11.3224 40.9854 -6.48686e-06 -1.26872e-05 -1.05716 -1.07837 -48.7083 11.7543 -2.30145e-07 3.05095e-06 0.127699 -0.211427 -20.2893 -2.19251 6.46944 -1.45247e-06 167.504 10.1154 -163.609 -39.0811 -0.00228153 -0.0401928 0.58087 -0.560031 44.6048 -40.9854 7.72618e-06 5.99936e-06 -6.04594 8.07151 -14.1014 -11.7543 -5.6619e-06 -5.58687e-06 0.295134 -0.348109 -19.93 
